<svg width="26" height="18" viewBox="0 0 26 18" fill="none" xmlns="http://www.w3.org/2000/svg">
<path d="M25.732 8.34696C24.5487 5.97793 22.7331 3.98243 20.486 2.58128C18.239 1.18013 15.6481 0.427949 13 0.407959C10.352 0.428174 7.76124 1.18045 5.51421 2.58158C3.26719 3.9827 1.45151 5.97807 0.268028 8.34696C0.165726 8.54943 0.112427 8.77311 0.112427 8.99996C0.112427 9.22681 0.165726 9.45049 0.268028 9.65296C1.45133 12.022 3.26696 14.0175 5.51403 15.4186C7.76109 16.8198 10.352 17.572 13 17.592C15.648 17.5717 18.2388 16.8195 20.4858 15.4183C22.7329 14.0172 24.5485 12.0218 25.732 9.65296C25.8343 9.45049 25.8876 9.22681 25.8876 8.99996C25.8876 8.77311 25.8343 8.54943 25.732 8.34696ZM13 15.447C11.7255 15.447 10.4796 15.069 9.41993 14.3609C8.36022 13.6529 7.53428 12.6465 7.04655 11.469C6.55882 10.2915 6.4312 8.99581 6.67985 7.7458C6.92849 6.49578 7.54222 5.34757 8.44343 4.44636C9.34464 3.54515 10.4929 2.93142 11.7429 2.68278C12.9929 2.43414 14.2886 2.56175 15.466 3.04948C16.6435 3.53721 17.6499 4.36315 18.358 5.42286C19.0661 6.48257 19.444 7.72846 19.444 9.00296C19.4432 10.7115 18.764 12.3498 17.5556 13.5576C16.3472 14.7655 14.7086 15.444 13 15.444V15.447ZM13 4.70696C12.6164 4.71241 12.2353 4.76959 11.867 4.87696C12.1714 5.28934 12.3177 5.79722 12.2794 6.30831C12.2411 6.8194 12.0207 7.29979 11.6583 7.66219C11.2959 8.0246 10.8155 8.24498 10.3044 8.28329C9.79329 8.3216 9.28541 8.17529 8.87303 7.87096C8.63812 8.73617 8.68045 9.65326 8.99405 10.4932C9.30765 11.3331 9.87673 12.0535 10.6212 12.553C11.3657 13.0525 12.2481 13.306 13.1441 13.2778C14.0402 13.2496 14.9049 12.9411 15.6165 12.3958C16.3281 11.8504 16.8507 11.0956 17.1109 10.2377C17.371 9.3797 17.3556 8.46176 17.0667 7.61304C16.7779 6.76431 16.2302 6.02753 15.5006 5.5064C14.7711 4.98527 13.8966 4.70602 13 4.70796V4.70696Z" fill="#722ED1"/>
</svg>
