<svg width="24" height="25" viewBox="0 0 24 25" fill="none" xmlns="http://www.w3.org/2000/svg">
<path d="M12.8009 2.9V0.5H11.2043V2.9C10.2329 3.09181 9.36979 3.62581 8.7822 4.39845C8.1946 5.1711 7.92442 6.12734 8.02404 7.0818C8.12365 8.03626 8.58597 8.92092 9.32134 9.56427C10.0567 10.2076 11.0128 10.5638 12.0041 10.5638C12.9955 10.5638 13.9516 10.2076 14.6869 9.56427C15.4223 8.92092 15.8846 8.03626 15.9842 7.0818C16.0839 6.12734 15.8137 5.1711 15.2261 4.39845C14.6385 3.62581 13.7753 3.09181 12.804 2.9H12.8009Z" fill="#722ED1"/>
<path d="M20.4616 17.532H22.4054V15.984H19.6566L16.5078 9.89701C15.8489 10.7632 14.9394 11.421 13.8942 11.787L16.0644 15.987H12.8009V14.435H11.2012V15.983H7.93868L10.1089 11.783C9.06358 11.4172 8.15402 10.7594 7.49535 9.89301L4.34034 15.984H1.59972V17.532H3.54358L0 24.381C0.907674 24.6006 1.86559 24.514 2.71558 24.1357C3.56557 23.7573 4.25681 23.1098 4.67516 22.3L7.13882 17.533H11.2012V19.081H12.8009V17.532H16.8632L19.3248 22.3C19.7432 23.1098 20.4344 23.7573 21.2844 24.1357C22.1344 24.514 23.0923 24.6006 24 24.381L20.4616 17.532Z" fill="#722ED1"/>
</svg>
