<svg width="393" height="392" viewBox="0 0 393 392" fill="none" xmlns="http://www.w3.org/2000/svg">
<path d="M196.253 344.949C278.184 344.949 344.602 278.381 344.602 196.265C344.602 114.149 278.184 47.5805 196.253 47.5805C114.322 47.5805 47.9038 114.149 47.9038 196.265C47.9038 278.381 114.322 344.949 196.253 344.949Z" stroke="#EEDFF9"/>
<path d="M196.253 390.924C304.143 390.924 391.604 303.553 391.604 195.776C391.604 87.9984 304.143 0.627563 196.253 0.627563C88.3637 0.627563 0.901978 87.9984 0.901978 195.776C0.901978 303.553 88.3637 390.924 196.253 390.924Z" stroke="#EEDFF9"/>
<path d="M196.253 297.996C252.767 297.996 298.58 252.231 298.58 195.776C298.58 139.321 252.767 93.5553 196.253 93.5553C139.74 93.5553 93.9264 139.321 93.9264 195.776C93.9264 252.231 139.74 297.996 196.253 297.996Z" stroke="#EEDFF9"/>
</svg>
