<svg width="24" height="24" viewBox="0 0 24 24" fill="none" xmlns="http://www.w3.org/2000/svg">
<g id="electronic-circuit" clip-path="url(#clip0_3_107)">
<g id="Group 11">
<path id="Path 607" d="M7.99598 7.5945V5.82541C8.66285 5.58964 9.2249 5.1257 9.58279 4.51561C9.94068 3.90551 10.0714 3.18854 9.95177 2.4914C9.83216 1.79427 9.46995 1.16186 8.92916 0.705957C8.38837 0.25005 7.70382 0 6.9965 0C6.28918 0 5.60463 0.25005 5.06384 0.705957C4.52305 1.16186 4.16084 1.79427 4.04124 2.4914C3.92163 3.18854 4.05232 3.90551 4.41021 4.51561C4.7681 5.1257 5.33015 5.58964 5.99702 5.82541V8.00828C5.99707 8.27334 6.10241 8.52752 6.28987 8.71492L8.99547 11.4205V23.0005C8.99547 23.2656 9.10077 23.5198 9.28821 23.7073C9.47565 23.8947 9.72987 24 9.99495 24C10.26 24 10.5142 23.8947 10.7017 23.7073C10.8891 23.5198 10.9944 23.2656 10.9944 23.0005V11.0067C10.9944 10.7417 10.889 10.4875 10.7016 10.3001L7.99598 7.5945Z" fill="#722ED1"/>
<path id="Path 608" d="M3.99794 16.5899V14.8208C4.6648 14.585 5.22685 14.1211 5.58475 13.511C5.94264 12.9009 6.07333 12.1839 5.95372 11.4868C5.83411 10.7896 5.4719 10.1572 4.93111 9.70132C4.39032 9.24541 3.70577 8.99536 2.99845 8.99536C2.29113 8.99536 1.60658 9.24541 1.06579 9.70132C0.525006 10.1572 0.162798 10.7896 0.0431882 11.4868C-0.0764212 12.1839 0.0542694 12.9009 0.412161 13.511C0.770053 14.1211 1.3321 14.585 1.99897 14.8208V17.0036C1.99903 17.2687 2.10437 17.5229 2.29182 17.7103L4.99742 20.4159V23.0005C4.99742 23.2656 5.10272 23.5198 5.29016 23.7073C5.4776 23.8947 5.73182 24 5.9969 24C6.26198 24 6.5162 23.8947 6.70364 23.7073C6.89108 23.5198 6.99638 23.2656 6.99638 23.0005V20.0021C6.99633 19.737 6.89099 19.4829 6.70354 19.2955L3.99794 16.5899Z" fill="#722ED1"/>
<path id="Path 609" d="M17.9906 8.00828V5.82541C18.6574 5.58964 19.2195 5.1257 19.5774 4.51561C19.9353 3.90551 20.066 3.18854 19.9464 2.4914C19.8267 1.79427 19.4645 1.16186 18.9238 0.705957C18.383 0.25005 17.6984 0 16.9911 0C16.2838 0 15.5992 0.25005 15.0584 0.705957C14.5176 1.16186 14.1554 1.79427 14.0358 2.4914C13.9162 3.18854 14.0469 3.90551 14.4048 4.51561C14.7627 5.1257 15.3247 5.58964 15.9916 5.82541V7.5945L13.286 10.3001C13.0986 10.4875 12.9932 10.7417 12.9932 11.0067V23.0005C12.9932 23.2656 13.0985 23.5198 13.2859 23.7073C13.4733 23.8947 13.7276 24 13.9926 24C14.2577 24 14.5119 23.8947 14.6994 23.7073C14.8868 23.5198 14.9921 23.2656 14.9921 23.0005V11.4205L17.6977 8.71492C17.8852 8.52752 17.9905 8.27334 17.9906 8.00828Z" fill="#722ED1"/>
<path id="Path 610" d="M23.9876 12.0062C23.9899 11.456 23.8407 10.9157 23.5564 10.4446C23.2721 9.97352 22.8637 9.58972 22.3758 9.33526C21.888 9.0808 21.3395 8.96549 20.7905 9.00195C20.2414 9.03842 19.713 9.22526 19.2631 9.542C18.8132 9.85875 18.4591 10.2932 18.2396 10.7978C18.0201 11.3023 17.9437 11.8576 18.0187 12.4027C18.0938 12.9478 18.3173 13.4617 18.665 13.8882C19.0126 14.3147 19.4709 14.6373 19.9897 14.8208V16.5898L17.2841 19.2954C17.0966 19.4828 16.9913 19.737 16.9912 20.0021V23.0005C16.9912 23.2656 17.0965 23.5198 17.284 23.7073C17.4714 23.8947 17.7256 24 17.9907 24C18.2558 24 18.51 23.8947 18.6974 23.7073C18.8849 23.5198 18.9902 23.2656 18.9902 23.0005V20.4159L21.6958 17.7103C21.8832 17.5229 21.9886 17.2687 21.9886 17.0036V14.8208C22.5712 14.6148 23.076 14.2338 23.4338 13.73C23.7916 13.2262 23.985 12.6242 23.9876 12.0062Z" fill="#722ED1"/>
</g>
</g>
<defs>
<clipPath id="clip0_3_107">
<rect width="24" height="24" fill="white"/>
</clipPath>
</defs>
</svg>
