<svg width="16" height="16" viewBox="0 0 16 16" fill="none" xmlns="http://www.w3.org/2000/svg">
<g clip-path="url(#clip0_5_165)">
<path d="M15.117 16C15.3512 16 15.5758 15.907 15.7414 15.7414C15.907 15.5758 16 15.3512 16 15.117V0.883C16 0.648814 15.907 0.424219 15.7414 0.258625C15.5758 0.0930301 15.3512 0 15.117 0L0.883 0C0.648814 0 0.424219 0.0930301 0.258625 0.258625C0.0930301 0.424219 0 0.648814 0 0.883L0 15.117C0 15.3512 0.0930301 15.5758 0.258625 15.7414C0.424219 15.907 0.648814 16 0.883 16H15.117Z" fill="#485A96"/>
<path d="M11.04 16V9.80704H13.12L13.431 7.39204H11.04V5.84804C11.04 5.14804 11.234 4.67204 12.24 4.67204H13.519V2.51204C12.9002 2.44485 12.2783 2.41147 11.656 2.41204C11.2328 2.38135 10.8079 2.44359 10.4113 2.59439C10.0147 2.7452 9.65585 2.98091 9.35993 3.28502C9.06401 3.58914 8.83818 3.95429 8.69827 4.35488C8.55835 4.75547 8.50773 5.18182 8.54996 5.60404V7.38504H6.46497V9.80704H8.54996V16.007H11.044L11.04 16Z" fill="white"/>
</g>
<defs>
<clipPath id="clip0_5_165">
<rect width="16" height="16" fill="white"/>
</clipPath>
</defs>
</svg>
