<svg width="145" height="39" viewBox="0 0 145 39" fill="none" xmlns="http://www.w3.org/2000/svg">
<path d="M97.2842 16.2858L90.729 22.4428L97.7974 30.5668C96.0464 30.5668 94.5291 30.5968 93.0151 30.5368C92.7661 30.5268 92.5004 30.1478 92.2974 29.8948C90.4894 27.6518 88.6972 25.3948 86.6772 23.1878V30.4958H82.9771V9.75082H86.6094V21.9298L86.8979 22.0868C87.3759 21.5558 87.849 21.0198 88.332 20.4938C89.559 19.1598 90.7762 17.8158 92.0322 16.5088C92.2915 16.2195 92.6427 16.0285 93.0264 15.9678C94.3624 15.9058 95.703 15.9428 97.042 15.9428L97.2842 16.2858Z" fill="#8989A2"/>
<path d="M130.589 30.5868V16.0138H134.089V17.9708L134.463 18.2398C134.488 18.0447 134.546 17.8555 134.637 17.6808C135.356 16.7159 136.367 16.0094 137.521 15.6669C138.675 15.3245 139.908 15.3644 141.037 15.7808C142.106 16.1625 143.027 16.8725 143.669 17.8093C144.31 18.7462 144.64 19.8618 144.609 20.9968C144.646 24.1488 144.618 27.3018 144.618 30.5858C143.499 30.5858 142.464 30.6318 141.44 30.5478C141.229 30.5308 140.899 30.0328 140.893 29.7478C140.847 27.5638 140.869 25.3798 140.866 23.1948C140.866 22.7948 140.86 22.3878 140.837 21.9858C140.704 19.6348 139.771 18.5248 137.929 18.5178C137.456 18.4979 136.984 18.5754 136.542 18.7455C136.1 18.9156 135.698 19.1747 135.361 19.5066C135.023 19.8385 134.758 20.2362 134.58 20.6751C134.403 21.1139 134.317 21.5846 134.329 22.0578C134.236 24.5078 134.245 26.9638 134.292 29.4158C134.31 30.3248 134.082 30.6968 133.125 30.6018C132.302 30.5218 131.465 30.5868 130.589 30.5868Z" fill="#8989A2"/>
<path d="M69.2212 30.5208H65.6479V16.0128H69.0942C69.1322 16.6988 69.1683 17.3438 69.2183 18.2238C69.6325 17.5093 70.2027 16.8976 70.8862 16.4341C71.5698 15.9705 72.3489 15.6673 73.166 15.5468C76.901 15.1118 79.5252 17.3408 79.6182 21.1168C79.6892 24.0048 79.618 26.8958 79.644 29.7848C79.649 30.3998 79.4441 30.6218 78.8291 30.5968C77.8961 30.5588 76.9613 30.5868 75.8813 30.5868C75.8813 30.0728 75.8873 29.6508 75.8813 29.2288C75.8383 26.5448 75.831 23.8598 75.728 21.1778C75.7479 20.5785 75.5562 19.9913 75.1865 19.5192C74.8168 19.0471 74.2927 18.7202 73.7061 18.5958C73.0404 18.3753 72.3195 18.3888 71.6626 18.6342C71.0057 18.8795 70.4524 19.3419 70.0942 19.9448C69.5873 20.916 69.3016 21.9872 69.2573 23.0818C69.1403 25.5298 69.2212 27.9788 69.2212 30.5208Z" fill="#8989A2"/>
<path d="M39.6831 18.7608H37.2471V15.9749H39.8662C39.8662 14.2589 39.8662 12.6618 39.8662 11.0638C39.8662 9.75884 39.8663 9.75884 41.1753 9.75684C43.5523 9.75684 43.5512 9.75685 43.5532 12.1129C43.5532 13.2555 43.5596 14.3982 43.5723 15.5408C43.5967 15.6657 43.6356 15.7873 43.689 15.9028H47.3452V18.7298H43.624C43.597 19.1998 43.5572 19.5848 43.5562 19.9698C43.5562 21.8848 43.5271 23.8019 43.5811 25.7159C43.6341 27.5829 44.3523 28.1439 46.2173 27.9099C46.5123 27.8729 46.811 27.8608 47.083 27.8388C47.128 27.9178 47.1582 27.9468 47.1592 27.9768C47.2392 30.6868 47.8951 30.7768 44.6851 30.8398C41.4501 30.9048 39.9091 29.4048 39.8071 26.1758C39.7421 24.0938 39.771 22.0098 39.751 19.9268C39.747 19.5668 39.7091 19.2088 39.6831 18.7608Z" fill="#8989A2"/>
<path d="M27.0201 16.4468C26.8381 16.6018 26.7658 16.6598 26.6978 16.7228C26.4698 16.9348 26.2425 17.1475 26.0152 17.3608C25.8061 17.1146 25.6284 16.8432 25.4869 16.5528C25.2349 15.8248 25.0872 15.0598 24.8292 14.3348C24.3914 12.8471 23.6346 11.4726 22.6119 10.3068C21.6119 12.6988 21.6119 12.6988 21.0909 12.9538C20.9072 11.4723 20.6467 10.0013 20.3101 8.54681C19.9031 7.08781 19.2302 5.70282 18.6202 4.14682L17.4283 6.25284C16.9113 5.02284 16.557 3.97782 16.044 3.01782C15.5895 1.96274 14.8135 1.07828 13.8262 0.490814C13.6262 5.64381 11.0691 9.32482 6.79108 10.6428L6.25201 8.71283C4.89933 9.88465 3.905 11.4147 3.38385 13.1268C2.85785 14.7738 2.48387 16.4688 2.02887 18.1708L1.42926 17.8918C0.660022 19.6191 0.192562 21.4656 0.047912 23.3508C-0.614088 30.9828 5.68023 38.4038 12.9722 38.4938C16.2268 38.6518 19.4226 37.5846 21.9293 35.5028C27.9343 30.3688 28.3181 23.6848 27.0201 16.4468ZM19.6978 32.3818C19.387 32.4722 19.1009 32.6317 18.8604 32.8483C18.6199 33.0649 18.4314 33.3331 18.3091 33.6328C17.8302 34.6196 17.0486 35.4277 16.0787 35.9398C15.1087 36.4518 14.001 36.641 12.9161 36.4798C11.8131 36.2968 10.8074 35.7381 10.0694 34.8982C9.33143 34.0584 8.90686 32.9891 8.86725 31.8718C8.82073 31.5045 8.6319 31.17 8.34186 30.9398C7.45354 30.4105 6.75677 29.612 6.3526 28.6602C5.94843 27.7084 5.85779 26.6526 6.09381 25.6458C6.25142 24.694 6.69308 23.8119 7.36041 23.1151C8.02775 22.4184 8.88989 21.9393 9.83404 21.7408C10.8063 21.4405 11.8507 21.4711 12.8038 21.8277C13.7568 22.1844 14.5649 22.847 15.1011 23.7118C15.1781 23.8178 15.2652 23.9178 15.3472 24.0208L15.4468 23.7378C16.7004 23.5152 17.9757 23.4366 19.2471 23.5038C20.2002 23.6741 21.0649 24.1685 21.6954 24.9032C22.3259 25.6379 22.6835 26.5679 22.7071 27.5358C22.8124 28.5628 22.5741 29.5957 22.0294 30.4727C21.4846 31.3497 20.6641 32.0211 19.6968 32.3818H19.6978Z" fill="#8989A2"/>
<path d="M112.765 22.8808C112.721 18.9808 110.444 16.1628 106.874 15.5808C102.795 14.9108 98.9858 16.9648 97.7838 20.5628C96.2568 25.1318 98.4489 30.1628 104.072 30.8858C107.139 31.2798 109.863 30.6858 112.062 28.1078C111.508 27.8182 110.97 27.4984 110.451 27.1498C110.184 26.9366 109.854 26.8182 109.513 26.8133C109.171 26.8084 108.838 26.9173 108.565 27.1228C107.681 27.5884 106.719 27.8848 105.726 27.9968C105.184 28.0628 104.634 28.0197 104.109 27.8698C103.584 27.72 103.095 27.4665 102.669 27.1243C102.244 26.7822 101.891 26.3583 101.632 25.8777C101.373 25.397 101.213 24.8694 101.161 24.3258H112.761C112.765 23.7488 112.771 23.3148 112.765 22.8808ZM101.233 21.7648C101.214 21.1636 101.37 20.5698 101.681 20.0551C101.993 19.5405 102.447 19.1271 102.988 18.8648C103.648 18.4239 104.421 18.181 105.214 18.1647C106.008 18.1484 106.79 18.3594 107.468 18.7728C107.979 19.0778 108.394 19.5215 108.664 20.0525C108.933 20.5835 109.046 21.1799 108.991 21.7728L101.233 21.7648Z" fill="#8989A2"/>
<path d="M127.889 20.1288C127.846 19.12 127.458 18.1567 126.789 17.4005C126.12 16.6443 125.211 16.1413 124.215 15.9758C122.581 15.6687 120.911 15.5986 119.257 15.7678C117.603 15.9401 116.058 16.6751 114.881 17.8498L116.751 19.9668C117.135 19.7088 117.405 19.5098 117.69 19.3378C118.436 18.816 119.299 18.4874 120.204 18.3813C121.108 18.2752 122.025 18.3949 122.871 18.7298C123.149 18.8103 123.408 18.9455 123.632 19.1273C123.857 19.3091 124.044 19.5339 124.18 19.7887C124.317 20.0434 124.402 20.3228 124.429 20.6106C124.457 20.8984 124.427 21.1889 124.341 21.4648C123.893 21.4898 123.427 21.5198 122.962 21.5428C120.545 21.6628 118.11 21.7548 115.962 23.0608C115.36 23.4034 114.858 23.8965 114.505 24.4918C114.151 25.0871 113.959 25.7641 113.946 26.4563C113.933 27.1484 114.101 27.8319 114.432 28.4397C114.764 29.0475 115.248 29.5586 115.837 29.9228C117.131 30.7192 118.65 31.073 120.163 30.9308C121.004 30.9038 121.83 30.7003 122.587 30.3335C123.344 29.9667 124.015 29.4449 124.557 28.8018C124.608 29.5018 124.643 29.9858 124.682 30.5218H128.227C128.128 27.0088 128.126 23.5608 127.889 20.1288ZM123.09 27.5288C122.452 27.9729 121.706 28.2353 120.931 28.2882C120.156 28.341 119.381 28.1822 118.69 27.8288C118.429 27.7076 118.205 27.5191 118.041 27.2826C117.878 27.0462 117.78 26.7704 117.758 26.4837C117.736 26.197 117.791 25.9096 117.918 25.6513C118.044 25.3929 118.237 25.1729 118.476 25.0138C118.945 24.6358 119.495 24.3734 120.084 24.2478C121.484 24.0198 122.915 23.9318 124.438 23.7778C124.635 25.4278 124.333 26.7148 123.087 27.5248L123.09 27.5288Z" fill="#8989A2"/>
<path d="M56.5451 15.5398C51.5061 15.4068 48.1131 18.4208 48.0231 23.1108C48.0098 25.206 48.8293 27.2207 50.3014 28.7116C51.7736 30.2025 53.778 31.0475 55.8732 31.0608C57.9684 31.0741 59.9829 30.2545 61.4738 28.7823C62.9647 27.3101 63.8097 25.306 63.8229 23.2108C63.855 22.2277 63.6915 21.2479 63.342 20.3284C62.9925 19.409 62.4643 18.568 61.7873 17.8544C61.1102 17.1408 60.298 16.5688 59.3981 16.1714C58.4983 15.7741 57.5286 15.5594 56.5451 15.5398ZM59.7941 24.8878C59.6802 25.4152 59.4597 25.9138 59.1462 26.3529C58.8326 26.792 58.4327 27.1624 57.9709 27.4413C57.509 27.7203 56.9947 27.9019 56.4601 27.9751C55.9255 28.0483 55.3818 28.0114 54.862 27.8668C52.987 27.3808 51.7962 25.5058 51.8092 23.0608C51.8272 19.7968 54.1902 17.7708 57.0812 18.5408C59.3732 19.1508 60.5731 21.9578 59.7941 24.8878Z" fill="#8989A2"/>
<path d="M16.5557 28.6038C16.9557 28.1708 17.2017 27.6868 17.5557 27.5828C17.7688 27.5393 17.9892 27.5443 18.2002 27.5972C18.4112 27.6502 18.6076 27.7498 18.7749 27.8888C19.0439 28.1548 19.0368 28.6988 19.1978 29.2958L16.5557 28.6038Z" fill="#8989A2"/>
<path d="M10.2082 27.5888C10.1982 26.6648 10.583 26.1708 11.447 26.1998C12.247 26.2268 12.6401 26.6808 12.5471 27.5888H10.2082Z" fill="#8989A2"/>
</svg>
