<svg width="87" height="31" viewBox="0 0 87 31" fill="none" xmlns="http://www.w3.org/2000/svg">
<path fill-rule="evenodd" clip-rule="evenodd" d="M2.58154 28.7175H17.7817C18.7178 28.7559 19.6466 28.5373 20.4673 28.0855C21.288 27.6337 21.9692 26.9659 22.4375 26.1545C22.8736 25.2946 23.0449 24.3246 22.9297 23.3674C22.8145 22.4101 22.4181 21.5085 21.7905 20.7765L12.9844 10.2095C12.7568 9.93062 12.6478 9.57372 12.6802 9.21523C12.7125 8.85674 12.8839 8.52516 13.1577 8.2915L22.1226 0.82251L23.2588 2.04851L14.7354 9.4705L23.1943 19.6125C24.0278 20.5911 24.5633 21.7884 24.7368 23.0621C24.9103 24.3358 24.7147 25.6326 24.1733 26.7985C23.5991 27.9437 22.708 28.8996 21.6055 29.5521C20.503 30.2046 19.2358 30.5262 17.9556 30.4785L2.58252 30.4935C2.46666 30.4939 2.3518 30.4714 2.24463 30.4274C2.13746 30.3834 2.04012 30.3186 1.95801 30.2369C1.87589 30.1551 1.81063 30.058 1.76611 29.951C1.72159 29.8441 1.69886 29.7294 1.69873 29.6135V29.5975C1.69873 29.4816 1.72165 29.3667 1.76611 29.2597C1.81058 29.1526 1.87539 29.0553 1.95752 28.9735C2.03965 28.8916 2.13739 28.8268 2.24463 28.7827C2.35186 28.7386 2.46657 28.7161 2.58252 28.7165" fill="#8989A2"/>
<path fill-rule="evenodd" clip-rule="evenodd" d="M2.3916 28.7325L17.8428 25.8865C18.2162 25.8078 18.5626 25.6329 18.8477 25.3791C19.1327 25.1253 19.3465 24.8014 19.4678 24.4395C19.5944 24.0798 19.6243 23.6931 19.5552 23.318C19.4861 22.943 19.3203 22.5925 19.0737 22.3015C15.4277 17.9145 11.7979 13.5585 8.15186 9.15652C7.97443 8.94631 7.84872 8.6972 7.78564 8.42944C7.72257 8.16169 7.72363 7.88283 7.78857 7.61552C7.85262 7.34749 7.9787 7.09824 8.15674 6.88789C8.33478 6.67754 8.5597 6.51198 8.81348 6.40453L22.4194 0.523529L22.9087 2.25352L9.93457 7.88252C9.89043 7.89724 9.85124 7.92359 9.8208 7.95879C9.79036 7.99398 9.76993 8.03672 9.76172 8.08252C9.74862 8.12871 9.74728 8.17747 9.7583 8.2242C9.76933 8.27092 9.79235 8.31406 9.82471 8.34952C13.3757 12.6105 16.8948 16.8405 20.4478 21.1015C20.9242 21.6264 21.248 22.2716 21.3843 22.9673C21.5205 23.663 21.4639 24.3827 21.2207 25.0485C21.0145 25.7049 20.6339 26.2929 20.1196 26.75C19.6054 27.207 18.9768 27.5158 18.3008 27.6435L6.08447 29.8915L2.3916 28.7325Z" fill="#8989A2"/>
<path fill-rule="evenodd" clip-rule="evenodd" d="M22.8467 2.26852L7.39453 5.11452C7.01807 5.18606 6.66802 5.35843 6.38184 5.61327C6.09565 5.8681 5.88407 6.19584 5.76953 6.56152C5.64353 6.92144 5.61383 7.30801 5.68311 7.683C5.75238 8.05799 5.91827 8.40839 6.16455 8.69952C9.81055 13.0865 13.4404 17.4425 17.0864 21.8295C17.2634 22.0432 17.3887 22.2951 17.4517 22.5653C17.5147 22.8355 17.5139 23.1166 17.4497 23.3865C17.3827 23.6533 17.2553 23.9011 17.0776 24.111C16.9 24.321 16.6768 24.4874 16.4248 24.5975L2.81836 30.4785L2.32959 28.7485L15.3037 23.1195C15.345 23.1003 15.3818 23.0725 15.4116 23.038C15.4414 23.0036 15.4635 22.9632 15.4766 22.9195C15.4862 22.8731 15.4855 22.8252 15.4746 22.7791C15.4637 22.7329 15.4429 22.6897 15.4136 22.6525C7.71357 13.4225 11.5945 18.0615 4.7915 9.90051C4.31508 9.37559 3.99122 8.73042 3.85498 8.03474C3.71874 7.33907 3.77534 6.61938 4.01855 5.95352C4.2229 5.29595 4.60289 4.70668 5.11768 4.24934C5.63246 3.79201 6.26239 3.48398 6.93945 3.35852L22.2495 0.512512L22.8467 2.26852Z" fill="#8989A2"/>
<path fill-rule="evenodd" clip-rule="evenodd" d="M22.6415 2.28452H7.44129C6.50751 2.24885 5.5819 2.46682 4.76209 2.91529C3.94228 3.36376 3.25912 4.02596 2.78553 4.83152C2.35579 5.69666 2.18945 6.66898 2.3075 7.62774C2.42554 8.58649 2.82283 9.48946 3.44959 10.2245L12.2567 20.7915C12.4856 21.0712 12.5941 21.4302 12.5585 21.7898C12.5229 22.1494 12.3456 22.4802 12.0663 22.7095L3.11853 30.1785L1.98133 28.9525L10.4887 21.5305L2.04432 11.3885C1.21109 10.4097 0.676158 9.21246 0.502811 7.93877C0.329465 6.66508 0.524947 5.3684 1.06629 4.20252C1.63848 3.05953 2.52717 2.10502 3.62635 1.45261C4.72552 0.8002 5.98907 0.477357 7.26648 0.522512L22.6395 0.506521C22.8753 0.50491 23.1023 0.596472 23.2709 0.761282C23.4394 0.926092 23.5357 1.1508 23.5394 1.38651V1.40252C23.536 1.6384 23.4395 1.86338 23.2709 2.0284C23.1023 2.19343 22.8754 2.28512 22.6395 2.28351" fill="#8989A2"/>
<path fill-rule="evenodd" clip-rule="evenodd" d="M11.2764 23.3705L3.11768 30.1795L1.98047 28.9525L9.4458 22.4425L11.2764 23.3705Z" fill="#8989A2"/>
<path fill-rule="evenodd" clip-rule="evenodd" d="M13.8813 25.6975L2.81738 30.4775L2.32861 28.7475L12.9185 24.1565L13.8813 25.6975Z" fill="#8989A2"/>
<path fill-rule="evenodd" clip-rule="evenodd" d="M2.3916 28.7325L14.7656 26.4525L15.2388 28.1975L6.08447 29.8975L2.3916 28.7325Z" fill="#8989A2"/>
<path fill-rule="evenodd" clip-rule="evenodd" d="M2.58154 28.7165H15.3813C15.5269 29.2923 15.6013 29.8837 15.6025 30.4775L2.58154 30.4935C2.46568 30.4939 2.35082 30.4715 2.24365 30.4274C2.13648 30.3834 2.03914 30.3186 1.95703 30.2369C1.87492 30.1552 1.80966 30.058 1.76514 29.9511C1.72062 29.8441 1.69788 29.7294 1.69775 29.6135V29.5975C1.69775 29.4816 1.72067 29.3668 1.76514 29.2597C1.8096 29.1526 1.87442 29.0553 1.95654 28.9735C2.03867 28.8917 2.13642 28.8268 2.24365 28.7827C2.35089 28.7386 2.4656 28.7161 2.58154 28.7165Z" fill="#8989A2"/>
<path fill-rule="evenodd" clip-rule="evenodd" d="M76.5089 21.3105C76.3845 21.0596 76.2419 20.818 76.0827 20.5875L72.9098 15.4925L76.5099 9.9105L72.2326 9.8945C72.1216 9.9255 69.3597 14.6115 68.9967 15.2095V5.6495C68.5867 5.6185 65.7456 5.60251 65.3966 5.66551V21.3265C66.1386 21.3115 68.5367 21.3575 68.9967 21.3115L69.0128 16.0285C69.1228 16.1385 71.9489 20.9975 72.0749 21.3115L76.5089 21.3105ZM86.8317 16.5455C87.1801 15.0849 86.9837 13.5474 86.279 12.2215C85.6398 11.1425 84.6206 10.3409 83.4215 9.97351C81.9863 9.50723 80.4301 9.58554 79.049 10.1935C77.8056 10.7674 76.8103 11.7696 76.2453 13.017C75.6802 14.2643 75.5832 15.6734 75.9718 16.9865C76.6658 19.7535 79.018 21.1695 81.716 21.4675C83.2203 21.6569 84.7478 21.5009 86.1828 21.0115V18.4485H83.2467C82.2939 18.4976 81.3468 18.2739 80.5167 17.8035C80.2806 17.6685 80.0737 17.4877 79.9083 17.2716C79.743 17.0556 79.6225 16.8087 79.5539 16.5455H86.8317ZM79.4596 14.1715C79.4645 13.9213 79.5202 13.6747 79.6232 13.4467C79.7262 13.2186 79.8743 13.0138 80.0587 12.8448C80.2432 12.6757 80.4603 12.5459 80.6964 12.4632C80.9326 12.3804 81.1831 12.3465 81.4328 12.3635C81.6739 12.3478 81.9157 12.3839 82.1417 12.4693C82.3678 12.5547 82.5728 12.6875 82.7433 12.8587C82.9138 13.03 83.0456 13.2357 83.13 13.4622C83.2144 13.6886 83.2493 13.9304 83.2326 14.1715H79.4596ZM57.7428 12.8035C57.8059 12.801 57.8691 12.8063 57.9308 12.8195C59.1468 12.8505 60.299 13.3855 60.425 14.5335C58.7884 14.3788 57.1386 14.616 55.612 15.2255C54.9401 15.4976 54.3869 15.9998 54.0514 16.6423C53.716 17.2848 53.6201 18.0257 53.7809 18.7325C53.947 19.5805 54.4205 20.3371 55.111 20.8566C55.8015 21.3761 56.6598 21.6219 57.5207 21.5465C58.116 21.5838 58.7116 21.4759 59.256 21.232C59.8004 20.9881 60.2772 20.6156 60.6457 20.1465L61.1989 21.3255H63.8815L63.82 15.1615C63.804 13.6515 63.7257 12.4885 62.8097 11.4505C61.3417 9.7685 58.8636 9.3745 56.5426 9.8305C55.8373 9.97673 55.1499 10.1983 54.4918 10.4915V12.8025L57.7428 12.8035ZM60.425 18.3385C60.094 18.9205 57.6787 19.3765 57.3957 18.1385C57.0317 16.5035 59.952 16.5975 60.425 16.7545V18.3385ZM31.3678 20.4455C31.4678 20.6345 31.8259 20.7595 32.0319 20.8545C32.7797 21.1775 33.5726 21.3842 34.383 21.4675C36.64 21.7345 38.9758 21.3255 40.1598 19.3135C40.4301 18.834 40.5809 18.2966 40.6002 17.7465C40.6196 17.1965 40.5066 16.6498 40.2707 16.1525C39.1027 13.9665 35.4889 14.3285 34.7619 13.6205C34.6711 13.5138 34.6236 13.3767 34.6295 13.2367C34.6355 13.0968 34.6941 12.9642 34.7936 12.8655C35.3018 12.5203 35.9243 12.3852 36.5299 12.4885H40.0177V10.7585C39.9237 10.5385 38.9759 10.1925 38.6769 10.0825C37.0003 9.51262 35.1789 9.53486 33.5167 10.1455C33.031 10.3335 32.5933 10.6271 32.235 11.0052C31.8767 11.3832 31.6066 11.8362 31.445 12.3314C31.2833 12.8265 31.2338 13.3514 31.3 13.868C31.3661 14.3846 31.5466 14.8801 31.8278 15.3185C32.8368 16.6395 34.3218 16.7335 36.0578 17.1425C36.5148 17.2525 37.304 17.3785 37.258 17.9135C37.179 18.6525 35.6957 18.7135 35.0797 18.7315H31.3708L31.3678 20.4455ZM45.32 13.6995C45.8361 13.1545 46.5437 12.8318 47.2936 12.7995C48.9036 12.7835 49.2345 13.8535 49.2345 15.0795L49.2189 16.0705V21.3225H52.8185C52.8335 19.0585 52.8188 16.8095 52.8498 14.5455C52.9589 13.4521 52.7905 12.3488 52.3605 11.3375C52.0101 10.7863 51.5173 10.3404 50.9337 10.0471C50.3502 9.75373 49.6979 9.62394 49.0465 9.6715C48.337 9.64403 47.6307 9.77996 46.9821 10.0688C46.3334 10.3577 45.7601 10.7918 45.3058 11.3375V5.6295H41.7057V21.3225H45.3058L45.32 13.6995Z" fill="#8989A2"/>
</svg>
