<svg width="153" height="31" viewBox="0 0 153 31" fill="none" xmlns="http://www.w3.org/2000/svg">
<rect width="153" height="31" fill="#E5E5E5"/>
<g clip-path="url(#clip0_0_1)">
<rect width="1440" height="3303" transform="translate(-479 -2298)" fill="white"/>
<rect width="1440" height="675" transform="translate(-479 -482)" fill="#F9F0FF"/>
<path d="M19.4943 12.4314C20.3103 12.9894 21.1422 13.5164 21.9152 14.1474C22.8219 14.9696 23.5171 15.9982 23.9421 17.146C24.367 18.2938 24.5093 19.5272 24.3566 20.7416C24.204 21.956 23.7609 23.1157 23.0651 24.1227C22.3693 25.1296 21.441 25.9541 20.359 26.5264C18.4686 27.4371 16.3922 27.8952 14.2941 27.8644C10.0291 27.8894 5.7633 27.8644 1.4943 27.8834C0.965298 27.8834 0.779384 27.7664 0.782384 27.1994C0.803384 22.2554 0.782009 17.3114 0.798009 12.3674C0.783542 11.4388 1.13752 10.5423 1.78238 9.87402C2.42725 9.20573 3.31091 8.82005 4.23942 8.80139C4.93142 8.70739 5.63942 8.74638 6.32242 8.60138C9.78208 9.05452 13.181 9.88756 16.4582 11.0854C17.1915 11.3561 17.9227 11.629 18.652 11.9044C18.9874 11.9718 19.287 12.1592 19.4943 12.4314Z" fill="#A0A0BD"/>
<path d="M19.4943 12.4313C16.9353 11.4071 14.3147 10.5434 11.6481 9.84532C9.92415 9.46832 8.21316 9.02733 6.46016 8.80333C6.22716 8.63433 5.85138 8.87236 5.68038 8.52836C4.95138 8.32836 4.22034 8.12834 3.49434 7.91734C2.7218 7.73215 2.03621 7.28783 1.55147 6.65843C1.06673 6.02903 0.812049 5.25257 0.830279 4.45836C0.768279 3.12736 0.809564 1.79236 0.797564 0.458356C0.797564 0.189356 0.826146 0.0123302 1.16915 0.0193302C6.29215 0.11933 11.4203 -0.196644 16.5383 0.208356C17.4515 0.286285 18.3475 0.50416 19.1945 0.854352C22.3645 2.14335 23.2086 4.92935 22.8606 7.82335C22.7434 8.81614 22.3716 9.76189 21.7819 10.5691C21.1923 11.3764 20.4045 12.0178 19.4943 12.4313Z" fill="#8989A2"/>
<path d="M80.2161 3.93035C81.2586 3.95072 82.2843 4.19865 83.221 4.65673C84.1577 5.11481 84.9832 5.77203 85.6394 6.58239C86.1443 7.24898 86.4991 8.01684 86.6795 8.83337C86.7795 9.22737 86.6661 9.38234 86.2601 9.46734C85.3898 9.64011 84.5301 9.86117 83.6844 10.1294C83.2084 10.2854 83.0744 10.1294 82.8924 9.72936C82.6672 9.25071 82.3481 8.82211 81.9544 8.46886C81.5606 8.11562 81.1001 7.8449 80.5999 7.67278C80.0997 7.50067 79.57 7.43062 79.0423 7.46679C78.5145 7.50296 77.9992 7.64461 77.5271 7.88335C77.2166 8.02724 76.9557 8.26015 76.7776 8.55248C76.5996 8.84481 76.5125 9.18342 76.5271 9.52538C76.5328 9.85473 76.641 10.1741 76.8367 10.439C77.0325 10.7039 77.3063 10.9012 77.6194 11.0033C79.6194 11.9133 81.7784 12.3874 83.7464 13.3564C85.0487 13.8609 86.1379 14.798 86.8313 16.0104C87.465 17.3792 87.5391 18.9412 87.0384 20.3641C86.5376 21.7869 85.5015 22.9581 84.1502 23.6283C82.6763 24.4439 80.9949 24.8079 79.3157 24.675C77.6365 24.5422 76.0337 23.9184 74.7063 22.8813C73.9633 22.2978 73.3486 21.567 72.9012 20.7349C72.4538 19.9027 72.1832 18.987 72.1062 18.0453C72.0602 17.7123 72.1191 17.5194 72.5061 17.4454C73.5311 17.2454 74.5563 17.0454 75.5623 16.7684C76.0213 16.6444 76.091 16.8224 76.157 17.1864C76.2289 17.623 76.3394 18.0523 76.4871 18.4694C77.3041 20.6584 78.6353 21.4143 80.9373 21.0033C81.4024 20.9371 81.8564 20.8076 82.2864 20.6183C82.6572 20.4814 82.9764 20.2337 83.2015 19.9088C83.4265 19.5839 83.5463 19.1976 83.5442 18.8024C83.567 18.3953 83.4705 17.9904 83.2664 17.6374C83.0623 17.2845 82.7595 16.9987 82.3953 16.8154C81.1296 16.1383 79.7891 15.6114 78.4012 15.2454C77.1265 14.864 75.918 14.289 74.8182 13.5404C72.0432 11.7494 72.1181 7.4294 74.7981 5.4024C76.1351 4.3814 77.6011 3.89535 80.2161 3.93035Z" fill="#8989A2"/>
<path d="M126.099 10.7294C128.02 8.77838 130.145 8.27333 132.506 9.28333C133.423 9.6591 134.202 10.3092 134.736 11.1446C135.27 11.98 135.532 12.9599 135.488 13.9503C135.546 17.1903 135.495 20.4333 135.51 23.6743C135.51 24.0833 135.404 24.2193 134.987 24.2053C134.125 24.1753 133.26 24.1693 132.399 24.2053C131.931 24.2263 131.845 24.0524 131.847 23.6254C131.865 20.9074 131.857 18.1884 131.856 15.4694C131.856 15.2604 131.864 15.0503 131.847 14.8433C131.693 13.0653 130.841 12.1564 129.384 12.2114C127.297 12.2904 126.284 13.2223 126.275 15.1113C126.263 17.9113 126.258 20.7053 126.285 23.5023C126.285 24.0273 126.194 24.2393 125.617 24.2023C124.757 24.1493 123.891 24.1673 123.029 24.2023C122.608 24.2173 122.506 24.0713 122.507 23.6663C122.521 19.0397 122.521 14.413 122.507 9.78632C122.507 9.38632 122.607 9.23132 123.031 9.24732C123.788 9.29056 124.547 9.28857 125.304 9.24134C125.952 9.18834 126.222 9.37633 126.104 10.0413C126.086 10.2702 126.084 10.5002 126.099 10.7294Z" fill="#8989A2"/>
<path d="M109.327 10.7534C110.427 9.17937 111.687 8.55332 113.376 8.94032C113.771 9.02932 113.885 9.18135 113.807 9.58235C113.642 10.4263 113.501 11.2824 113.396 12.1314C113.349 12.5244 113.262 12.6524 112.823 12.5874C110.723 12.2784 109.656 13.1434 109.599 15.3004C109.528 18.0154 109.539 20.7334 109.566 23.4494C109.572 24.0824 109.384 24.2494 108.782 24.2094C107.949 24.1584 107.11 24.1823 106.274 24.2033C105.934 24.2123 105.829 24.1114 105.829 23.7644C105.84 19.0364 105.84 14.308 105.829 9.57936C105.829 9.20936 105.929 9.07932 106.308 9.09132C107.091 9.11832 107.878 9.13732 108.659 9.09132C109.218 9.05532 109.412 9.23632 109.334 9.78132C109.313 10.1049 109.311 10.4295 109.327 10.7534Z" fill="#8989A2"/>
<path d="M53.2384 16.8043C53.2384 19.0533 53.2246 21.3043 53.2496 23.5513C53.2546 24.0413 53.1573 24.2403 52.6173 24.2093C51.7573 24.1603 50.8914 24.1773 50.0294 24.2093C49.6194 24.2223 49.4977 24.0953 49.4987 23.6803C49.5127 19.0517 49.5127 14.4233 49.4987 9.79533C49.4987 9.39533 49.5986 9.24132 50.0226 9.25432C50.9116 9.28132 51.8026 9.28732 52.6896 9.25432C53.1486 9.23632 53.2492 9.40033 53.2462 9.82933C53.2282 12.1493 53.2384 14.4763 53.2384 16.8043Z" fill="#8989A2"/>
<path d="M119.231 16.7554C119.231 19.0044 119.215 21.2554 119.244 23.5034C119.25 24.0234 119.159 24.2473 118.577 24.2093C117.743 24.1553 116.903 24.1774 116.066 24.2034C115.673 24.2154 115.525 24.1214 115.528 23.6924C115.548 19.063 115.553 14.4333 115.543 9.80334C115.543 9.34934 115.687 9.23137 116.12 9.24737C116.956 9.27937 117.796 9.28537 118.631 9.24737C119.112 9.22437 119.249 9.35935 119.243 9.84735C119.215 12.1514 119.231 14.4534 119.231 16.7554Z" fill="#8989A2"/>
<path d="M51.4108 6.95634C49.5108 6.95634 49.5109 6.95636 49.5109 5.06736C49.5109 3.50236 49.5108 3.49732 51.1168 3.50432C51.7918 3.50432 52.664 3.28433 53.09 3.61833C53.543 3.97533 53.224 4.88736 53.236 5.55436C53.26 6.95436 53.2427 6.95433 51.8077 6.95433L51.4108 6.95634Z" fill="#8989A2"/>
<path d="M117.455 3.50238C119.231 3.50238 119.231 3.50238 119.23 5.28638C119.23 6.95638 119.23 6.97138 117.592 6.95038C116.923 6.94138 116.034 7.25039 115.649 6.80939C115.322 6.43539 115.548 5.56837 115.548 4.91937C115.548 3.50337 115.548 3.50336 116.985 3.50336L117.455 3.50238Z" fill="#8989A2"/>
<path d="M5.67981 8.52832C5.92981 8.64632 6.24208 8.59234 6.46008 8.80334H4.24377C4.67577 8.46834 5.23981 8.82732 5.67981 8.52832Z" fill="#A0A0BD"/>
<path d="M44.2727 13.4393C44.7679 13.1014 45.2065 12.6873 45.5725 12.2124C46.0421 11.5294 46.3191 10.7326 46.3747 9.90566C46.4303 9.07869 46.2623 8.25202 45.8884 7.51235C45.5272 6.64763 44.9314 5.9012 44.1682 5.35744C43.4049 4.81368 42.5048 4.49432 41.5695 4.43538C38.5695 4.17638 35.5594 4.38735 32.5544 4.32735C32.0374 4.31735 32.0363 4.56934 32.0373 4.94734C32.046 8.16268 32.048 11.3777 32.0427 14.5924C32.0427 17.5984 32.0442 20.6044 32.0476 23.6104C32.0476 23.8554 31.8875 24.2103 32.4025 24.2023C35.6405 24.1213 38.8904 24.4524 42.1164 24.0194C43.3048 23.8721 44.4163 23.3528 45.2917 22.5357C46.1671 21.7187 46.7616 20.6457 46.9904 19.4704C47.5174 16.7694 46.6917 14.9313 44.2727 13.4393ZM36.5017 7.83937C37.7567 7.85937 39.0133 7.82634 40.2683 7.85634C40.5704 7.83027 40.8748 7.86953 41.1603 7.97145C41.4459 8.07338 41.7062 8.23558 41.9235 8.44704C42.1409 8.65849 42.3104 8.91429 42.4201 9.19698C42.5298 9.47966 42.577 9.78263 42.5593 10.0853C42.5751 10.3871 42.5257 10.6886 42.4143 10.9695C42.3028 11.2504 42.1321 11.5039 41.9138 11.7127C41.6954 11.9216 41.4346 12.0808 41.1491 12.1796C40.8636 12.2785 40.5602 12.3145 40.2595 12.2854C39.6595 12.3034 39.0597 12.2854 38.4597 12.2854C37.8057 12.2854 37.1507 12.2644 36.4987 12.2934C36.0987 12.3114 35.9496 12.2113 35.9606 11.7813C35.9906 10.6313 35.9926 9.48134 35.9606 8.33034C35.9396 7.88934 36.1247 7.83233 36.5017 7.83833V7.83937ZM41.1154 20.4544C40.3374 20.5094 39.5527 20.4644 38.7697 20.4644V20.5053C38.0127 20.5053 37.2557 20.4914 36.4997 20.5114C36.1277 20.5214 35.9404 20.4604 35.9514 20.0114C35.9824 18.6294 35.9734 17.2463 35.9514 15.8643C35.9514 15.4983 36.0424 15.3643 36.4274 15.3743C37.9664 15.3993 39.5076 15.3593 41.0456 15.4063C41.3534 15.4042 41.6583 15.464 41.9426 15.582C42.2269 15.7 42.485 15.8739 42.7009 16.0933C42.9168 16.3127 43.0861 16.5732 43.1994 16.8594C43.3128 17.1456 43.3676 17.4516 43.3605 17.7594C43.3855 19.4504 42.6634 20.3453 41.1154 20.4583V20.4544Z" fill="#8989A2"/>
<path d="M151.877 9.38539C151.477 9.04439 150.59 9.26439 149.917 9.26039C148.529 9.25139 148.529 9.26043 148.328 10.5764C148.04 10.2836 147.734 10.0074 147.414 9.7494C146.278 9.04412 144.942 8.73159 143.611 8.85988C142.28 8.98816 141.028 9.55016 140.048 10.4594C136.928 13.3874 136.983 18.5044 138.643 21.3214C140.753 24.9014 145.58 25.7914 148.249 22.8104C148.249 23.4804 148.249 24.0704 148.249 24.6614C148.296 25.0739 148.251 25.4916 148.117 25.8846C147.983 26.2775 147.764 26.6359 147.475 26.9339C147.186 27.2319 146.835 27.4621 146.446 27.608C146.057 27.7538 145.641 27.8117 145.227 27.7774C144.423 27.8067 143.628 27.5894 142.951 27.1548C142.273 26.7202 141.744 26.0889 141.435 25.3454C140.929 25.6854 140.474 25.9884 140.02 26.2954C138.505 27.3214 138.49 27.4814 139.774 28.8494C139.81 28.8874 139.849 28.9224 139.886 28.9594C140.629 29.6594 141.509 30.1978 142.47 30.5408C143.432 30.8839 144.454 31.024 145.472 30.9524C146.337 30.9801 147.197 30.8305 148.002 30.5127C148.806 30.195 149.537 29.7158 150.149 29.1049C150.761 28.4939 151.241 27.764 151.561 26.9603C151.88 26.1565 152.031 25.2959 152.005 24.4314C152.005 20.0661 152.003 15.6994 152 11.3314C151.999 10.6614 152.298 9.74639 151.877 9.38539ZM148.283 15.4104C148.266 15.8534 148.283 16.2984 148.283 16.7424C148.283 17.1864 148.288 17.6304 148.283 18.0744C148.336 18.7177 148.177 19.3607 147.83 19.9047C147.482 20.4488 146.966 20.8639 146.36 21.0864C145.731 21.3531 145.038 21.429 144.366 21.3045C143.694 21.1801 143.074 20.8608 142.582 20.3864C140.792 18.7584 140.802 14.3354 142.79 12.8714C143.299 12.4566 143.915 12.1933 144.566 12.1118C145.218 12.0303 145.88 12.1338 146.475 12.4104C147.062 12.645 147.557 13.065 147.883 13.6066C148.21 14.1482 148.35 14.7816 148.283 15.4104Z" fill="#8989A2"/>
<path d="M69.928 9.70537C69.928 9.28737 69.7484 9.24137 69.4114 9.25237C68.8364 9.27137 68.2613 9.25738 67.6853 9.25738C66.4473 9.25738 66.4482 9.25736 66.3802 10.4874C66.3802 10.5154 66.3093 10.5394 66.2683 10.5674C65.9794 10.2702 65.6732 9.9904 65.3513 9.72936C63.2463 8.20436 59.8383 8.65338 57.8753 10.5904C54.9893 13.4394 54.883 18.3274 56.575 21.2714C58.729 25.0124 63.6243 25.7264 66.2283 22.7714C66.2283 23.6404 66.2564 24.3424 66.2224 25.0404C66.2287 25.6358 66.0314 26.2155 65.6634 26.6836C65.2953 27.1517 64.7781 27.48 64.198 27.6144C63.5089 27.8362 62.7714 27.8586 62.0701 27.6788C61.3688 27.499 60.7325 27.1244 60.2351 26.5984C59.8761 26.2364 59.7701 25.4624 59.2771 25.4984C58.8001 25.5354 58.3581 26.0434 57.9051 26.3514C56.3941 27.3764 56.3794 27.5514 57.6634 28.8864C57.6994 28.9244 57.7372 28.9594 57.7752 28.9964C58.5935 29.7534 59.5695 30.3198 60.6326 30.6551C61.6957 30.9903 62.8196 31.086 63.9241 30.9354C65.4985 30.8861 66.9942 30.2349 68.1028 29.1158C69.2114 27.9968 69.8485 26.4952 69.8831 24.9204C69.9841 19.8504 69.912 14.7774 69.928 9.70537ZM66.263 16.6704H66.2532C66.2532 17.2184 66.2833 17.7704 66.2473 18.3154C66.2494 18.9359 66.055 19.5411 65.6917 20.0441C65.3284 20.5472 64.815 20.9222 64.2254 21.1154C63.617 21.3686 62.9476 21.4373 62.3006 21.3128C61.6535 21.1883 61.0572 20.8762 60.5862 20.4154C58.6862 18.6154 58.715 14.6354 60.637 12.9604C61.1329 12.5072 61.7516 12.2102 62.4153 12.1065C63.0791 12.0028 63.7589 12.097 64.3694 12.3774C64.9765 12.6041 65.4917 13.0248 65.8352 13.5743C66.1788 14.1238 66.3314 14.7713 66.2693 15.4164C66.2533 15.8344 66.263 16.2524 66.263 16.6704Z" fill="#8989A2"/>
<path d="M103.029 13.4543C102.693 12.2727 102.023 11.2134 101.099 10.404C100.175 9.59464 99.0365 9.06968 97.8209 8.89238C96.8835 8.70769 95.914 8.77318 95.0099 9.08233C94.1058 9.39147 93.2991 9.93335 92.671 10.6534C92.6563 10.45 92.6563 10.2457 92.671 10.0423C92.793 9.37935 92.5212 9.18436 91.8712 9.24236C91.1926 9.29628 90.5108 9.29628 89.8322 9.24236C89.2942 9.20536 89.132 9.34935 89.132 9.91735C89.1533 16.5613 89.1533 23.2054 89.132 29.8494C89.132 30.3774 89.2322 30.6004 89.8112 30.5594C90.5431 30.4952 91.2789 30.4952 92.0109 30.5594C92.7429 30.6364 92.8573 30.3483 92.8463 29.6933C92.8053 27.4323 92.8302 25.1704 92.8302 22.8754C92.9502 22.9234 93.0093 22.9284 93.0353 22.9604C95.0253 25.4264 99.6769 25.1354 101.821 22.2164C102.752 20.9798 103.352 19.5258 103.564 17.9923C103.775 16.4588 103.591 14.8967 103.029 13.4543ZM98.4679 20.4643C97.9775 20.9246 97.3609 21.2277 96.6969 21.3346C96.0329 21.4416 95.3524 21.3475 94.7423 21.0644C94.1624 20.8456 93.6665 20.4492 93.3253 19.9318C92.9841 19.4144 92.8147 18.8025 92.8419 18.1833C92.8279 17.6833 92.8419 17.1914 92.8419 16.6944C92.8419 16.2764 92.8419 15.8584 92.8419 15.4404C92.7893 14.757 92.9659 14.0756 93.3434 13.5037C93.7209 12.9317 94.2779 12.5016 94.9269 12.2814C95.5985 12.0544 96.3216 12.027 97.0084 12.2025C97.6953 12.378 98.3166 12.749 98.797 13.2704C100.395 15.0774 100.248 18.8444 98.4679 20.4634V20.4643Z" fill="#8989A2"/>
</g>
<defs>
<clipPath id="clip0_0_1">
<rect width="1440" height="3303" fill="white" transform="translate(-479 -2298)"/>
</clipPath>
</defs>
</svg>
