<svg width="86" height="31" viewBox="0 0 86 31" fill="none" xmlns="http://www.w3.org/2000/svg">
<path fill-rule="evenodd" clip-rule="evenodd" d="M21.217 17.3122C21.1374 17.5274 21.1162 17.7598 21.1556 17.9859C21.1949 18.2119 21.2934 18.4235 21.441 18.5992C21.6096 18.7281 21.8044 18.8185 22.0117 18.8642C22.219 18.9098 22.4338 18.9094 22.641 18.8632C23.4682 18.6826 24.3253 18.6885 25.15 18.8802C25.3611 18.9718 25.5497 19.1084 25.7026 19.2805C25.8554 19.4526 25.9688 19.656 26.0348 19.8765C26.1008 20.097 26.1178 20.3293 26.0847 20.5571C26.0516 20.7848 25.9691 21.0026 25.843 21.1952C25.5143 21.7374 25.1065 22.2275 24.633 22.6492C23.1274 24.3986 21.8058 26.2983 20.689 28.3182C20.196 29.1182 19.543 30.1842 18.505 30.2902C18.0368 30.3577 17.5603 30.246 17.1709 29.9773C16.7816 29.7087 16.508 29.3029 16.405 28.8412C16.264 27.8622 17.211 26.9282 17.857 26.2852C18.311 25.8312 18.735 25.3632 19.157 24.8752C19.65 24.3112 20.116 23.7492 20.557 23.1502C21.072 22.4502 21.928 21.3042 21.296 20.4392C20.838 19.8032 19.864 19.9142 19.228 20.1682C18.4177 20.551 17.7217 21.1391 17.209 21.8742C16.6506 22.6989 16.1411 23.5558 15.683 24.4402C15.3244 25.1708 14.8076 25.8123 14.17 26.3182C13.8436 26.5297 13.4494 26.6105 13.0661 26.5443C12.6828 26.4781 12.3386 26.2699 12.102 25.9612C11.9188 25.5795 11.8449 25.1546 11.8883 24.7335C11.9317 24.3123 12.0908 23.9115 12.348 23.5752C12.7449 22.9876 13.2091 22.4483 13.731 21.9682C14.512 21.1682 15.304 20.3732 16.063 19.5502C16.443 19.1282 16.82 18.7122 17.163 18.2782C17.474 17.8782 17.942 17.3542 17.804 16.7992C17.543 15.7542 15.891 16.1332 15.216 16.4642C14.2654 17.0094 13.4231 17.7246 12.731 18.5742C11.9775 19.4447 11.2896 20.3699 10.673 21.3422C9.36698 23.2892 8.16098 25.3162 6.81298 27.2332C6.25098 28.0332 5.58098 29.0002 4.55298 29.2052C4.3055 29.2573 4.04977 29.2564 3.80265 29.2026C3.55553 29.1487 3.32263 29.0431 3.1193 28.8927C2.91597 28.7423 2.74682 28.5505 2.62301 28.3299C2.49919 28.1094 2.42352 27.8651 2.40098 27.6132C2.39414 26.7033 2.72844 25.8238 3.33798 25.1482C3.80465 24.5415 4.28132 23.9442 4.76798 23.3562C6.06798 21.7832 7.37798 20.2082 8.71198 18.6732C9.84298 17.3572 10.93 16.0112 11.993 14.6282C12.593 13.8342 13.206 13.0532 13.758 12.2282C14.2311 11.413 14.8398 10.6845 15.558 10.0742C15.8635 9.81184 16.2438 9.65215 16.645 9.6177C17.0463 9.58325 17.4482 9.67576 17.794 9.88217C18.627 10.5282 18.216 11.7262 17.87 12.5102C17.524 13.2942 17.192 14.2802 18.186 14.6572C18.886 14.9282 19.665 14.7112 20.35 15.0572C20.7343 15.2744 21.0315 15.6181 21.1911 16.0298C21.3506 16.4415 21.3626 16.8957 21.225 17.3152" fill="#8989A2"/>
<path fill-rule="evenodd" clip-rule="evenodd" d="M7.35199 17.3762C8.97643 15.0169 10.7371 12.7544 12.625 10.6002C14.22 8.78319 15.903 7.04318 17.555 5.27118C18.2124 4.65009 18.6155 3.80683 18.686 2.90518C18.7015 2.68488 18.6706 2.46377 18.5953 2.25616C18.5199 2.04856 18.4019 1.85907 18.2487 1.69997C18.0956 1.54086 17.9107 1.41568 17.7061 1.33251C17.5015 1.24935 17.2817 1.21006 17.061 1.21719C16.5956 1.29739 16.1533 1.47782 15.7646 1.74599C15.3759 2.01415 15.0502 2.36362 14.81 2.77018C14.172 3.58718 13.625 4.46919 13.052 5.32719C12.505 6.13819 11.889 6.89519 11.307 7.68119C10.666 8.55619 10.045 9.45119 9.33499 10.2642C8.78299 10.8882 8.07499 12.0072 7.11699 11.9892C6.94627 11.9818 6.78168 11.9234 6.64457 11.8214C6.50745 11.7194 6.40413 11.5786 6.34799 11.4172C6.27854 11.2081 6.2647 10.9846 6.30784 10.7686C6.35097 10.5526 6.44959 10.3515 6.59399 10.1852C7.04228 9.55615 7.54128 8.96484 8.08599 8.41718C8.65477 7.9479 9.13704 7.38271 9.51099 6.74719C9.64695 6.42929 9.69201 6.07991 9.64116 5.73792C9.59032 5.39594 9.44555 5.07477 9.22299 4.81018C9.08559 4.64291 8.90362 4.51797 8.69815 4.44984C8.49269 4.3817 8.27212 4.37315 8.06199 4.42518C7.56899 4.56818 7.22899 5.06318 6.82999 5.33718C6.56399 5.51718 6.00899 5.68018 5.84399 5.28319C5.67899 4.88619 6.17199 4.49719 6.38899 4.27519C6.98899 3.65619 8.05199 3.01718 8.11299 2.06919C8.11877 1.84502 8.06836 1.62298 7.96637 1.42328C7.86438 1.22358 7.71404 1.05257 7.52906 0.925838C7.34407 0.799101 7.13032 0.720663 6.90726 0.697668C6.68421 0.674673 6.45894 0.707853 6.25199 0.794185C5.38219 1.16159 4.65242 1.79711 4.16899 2.60819C3.70299 3.26919 2.89199 4.42719 3.19999 5.28019C3.27569 5.46517 3.40137 5.62543 3.56297 5.74306C3.72456 5.86068 3.9157 5.93101 4.11499 5.94619C4.53899 6.01319 5.12599 5.78119 5.49799 6.03019C6.34299 6.59719 5.30799 7.95518 4.92599 8.49518C4.33234 9.3201 3.67213 10.095 2.95199 10.8122C2.19799 11.5712 1.35999 12.2912 0.681994 13.1122C0.369484 13.4142 0.164212 13.8101 0.0974205 14.2395C0.0306291 14.669 0.105976 15.1085 0.311994 15.4912C0.448784 15.6745 0.626172 15.8236 0.830251 15.9269C1.03433 16.0302 1.25956 16.0848 1.48827 16.0864C1.71698 16.0881 1.94297 16.0367 2.14852 15.9364C2.35406 15.8361 2.53358 15.6895 2.67299 15.5082C3.22333 14.679 3.82763 13.887 4.48199 13.1372C4.63246 12.9794 4.8214 12.8636 5.03022 12.801C5.23904 12.7384 5.46056 12.7312 5.67299 12.7802C5.77921 12.82 5.87641 12.8807 5.95891 12.9585C6.0414 13.0364 6.10754 13.1299 6.15345 13.2336C6.19936 13.3374 6.22411 13.4492 6.22627 13.5627C6.22842 13.6761 6.20793 13.7888 6.16599 13.8942C5.76868 14.8252 5.15503 15.6479 4.37599 16.2942C3.67599 17.0332 2.89699 17.6692 2.21399 18.4022C1.88241 18.7199 1.61969 19.1024 1.44216 19.5259C1.26463 19.9495 1.17607 20.405 1.18199 20.8642C1.20161 21.0979 1.27729 21.3235 1.40263 21.5218C1.52796 21.7201 1.69926 21.8852 1.90199 22.0032C2.314 22.1586 2.76388 22.1834 3.19045 22.074C3.61701 21.9647 3.99954 21.7266 4.28599 21.3922C5.20615 20.4361 6.02021 19.3833 6.71399 18.2522L7.35199 17.3762Z" fill="#8989A2"/>
<path fill-rule="evenodd" clip-rule="evenodd" d="M24.8939 4.6742C24.4009 5.1872 23.8539 5.6602 23.3529 6.1532C22.8519 6.6462 22.1209 7.4052 22.3529 8.1742C22.4201 8.33429 22.5256 8.47544 22.6601 8.58527C22.7945 8.69509 22.9539 8.77023 23.1242 8.80409C23.2945 8.83795 23.4705 8.8295 23.6368 8.77948C23.8031 8.72946 23.9545 8.6394 24.0779 8.5172C24.6469 8.0242 25.1279 7.2432 25.9929 7.4692C26.3558 7.61462 26.6496 7.89295 26.8144 8.24747C26.9792 8.60199 27.0026 9.00601 26.8799 9.3772C26.6236 10.1095 26.1636 10.7534 25.5539 11.2332C24.958 11.8425 24.4305 12.5152 23.9809 13.2392C23.6259 13.8132 23.2559 14.4102 22.5019 14.4712C22.1589 14.4694 21.8271 14.3489 21.5629 14.1302C21.2987 13.9114 21.1185 13.6079 21.0529 13.2712C21.0082 12.863 21.0593 12.4499 21.2021 12.0649C21.345 11.6799 21.5757 11.3335 21.8759 11.0532C22.2759 10.5602 22.7659 9.8082 22.1669 9.2532C21.5159 8.6532 20.6209 9.0632 19.9489 9.3532C19.7873 9.44837 19.6084 9.51057 19.4226 9.53618C19.2368 9.5618 19.0478 9.55033 18.8665 9.50244C18.6851 9.45455 18.5151 9.37119 18.3662 9.25717C18.2172 9.14316 18.0924 9.00076 17.9989 8.8382C17.8601 8.50092 17.8162 8.1321 17.8718 7.77166C17.9275 7.41121 18.0807 7.07285 18.3149 6.7932C18.9729 5.8462 19.8509 5.0682 20.5329 4.1262C21.4029 2.9632 21.9899 1.0822 23.7469 1.2202C24.1077 1.26031 24.4514 1.39562 24.7428 1.61228C25.0341 1.82894 25.2626 2.11916 25.4049 2.4532C25.5371 2.83345 25.5594 3.24328 25.4692 3.63562C25.379 4.02796 25.1799 4.3869 24.8949 4.6712" fill="#8989A2"/>
<path fill-rule="evenodd" clip-rule="evenodd" d="M32.26 24.5002H35.408V10.3282L41.1 24.5002H42.229L47.817 10.3312V24.5002H51.307V5.73919H46.688L41.862 18.5572L36.932 5.75119H32.26V24.5002ZM53.34 24.5002H56.515V10.7772H53.34V24.5002ZM54.888 8.52219C55.3106 8.50897 55.7155 8.34994 56.0342 8.07207C56.3528 7.79421 56.5655 7.41464 56.6361 6.9978C56.7067 6.58096 56.6308 6.15254 56.4214 5.78526C56.2121 5.41798 55.882 5.13447 55.4874 4.98286C55.0927 4.83126 54.6578 4.82089 54.2563 4.95353C53.8549 5.08617 53.5117 5.35363 53.2851 5.71052C53.0585 6.06742 52.9623 6.49174 53.013 6.91147C53.0636 7.3312 53.258 7.72046 53.563 8.01319C53.7386 8.18228 53.9464 8.31444 54.174 8.40186C54.4015 8.48929 54.6443 8.5302 54.888 8.52219ZM58.546 24.5002H61.721V16.4172C61.6861 15.9822 61.7452 15.5448 61.8943 15.1348C62.0434 14.7247 62.279 14.3515 62.5852 14.0405C62.8913 13.7295 63.2607 13.4881 63.6684 13.3326C64.0761 13.1771 64.5126 13.1111 64.948 13.1392C66.836 13.1392 67.677 14.0832 67.677 16.1562V24.5002H70.852V15.8722C70.852 12.0932 68.91 10.4932 66.152 10.4932C65.2548 10.4412 64.3614 10.6453 63.5758 11.0817C62.7902 11.5182 62.1448 12.169 61.715 12.9582V10.7772H58.545L58.546 24.5002ZM78.931 24.7612C82.446 24.7612 84.78 23.1862 85.231 20.3022H82.167C81.92 21.6382 80.935 22.4022 79.019 22.4022C76.658 22.4022 75.346 20.9232 75.24 18.3352H85.287V17.4182C85.287 12.5102 82.218 10.4912 78.807 10.4912C74.9 10.4912 71.986 13.3232 71.986 17.5752V17.7852C71.9274 18.7147 72.067 19.6461 72.3954 20.5176C72.7238 21.3892 73.2336 22.181 73.8911 22.8407C74.5485 23.5005 75.3386 24.013 76.209 24.3444C77.0794 24.6758 78.0103 24.8186 78.94 24.7632L78.931 24.7612ZM75.283 16.2082C75.603 14.0832 76.89 12.7942 78.803 12.7942C80.775 12.7942 81.978 13.8422 82.136 16.2032L75.283 16.2082Z" fill="#8989A2"/>
</svg>
