<svg width="112" height="31" viewBox="0 0 112 31" fill="none" xmlns="http://www.w3.org/2000/svg">
<path d="M24.3679 30.0315H5.19165C3.88402 30.0276 2.63142 29.5063 1.70679 28.5817C0.782151 27.6571 0.260548 26.4041 0.256592 25.0965V5.92052C0.260812 4.61306 0.78218 3.36038 1.70679 2.43596C2.63139 1.51154 3.8842 0.990466 5.19165 0.986511H24.3679C25.6753 0.990468 26.9278 1.51157 27.8523 2.43602C28.7767 3.36047 29.298 4.61316 29.302 5.92052V25.0965C29.3029 25.7447 29.1756 26.3867 28.928 26.9858C28.6803 27.5848 28.317 28.1291 27.8586 28.5874C27.4003 29.0458 26.8561 29.4092 26.2571 29.6568C25.658 29.9044 25.0161 30.0314 24.3679 30.0305" fill="#8989A2"/>
<path d="M24.3669 0.969513H14.7791V15.4915H29.301V5.9035C29.3 4.59499 28.7795 3.34036 27.8542 2.4151C26.929 1.48984 25.6745 0.969565 24.366 0.968506" fill="#A0A0BD"/>
<path d="M14.7791 30.0315H24.3669C25.6746 30.0276 26.9277 29.5064 27.8523 28.5817C28.7769 27.6571 29.298 26.4042 29.302 25.0965V15.5085H14.78L14.7791 30.0315Z" fill="#BCBCD8"/>
<path d="M54.7669 19.5735C54.8198 19.5744 54.8719 19.586 54.9202 19.6076C54.9685 19.6293 55.0118 19.6606 55.0477 19.6995L55.785 20.5045C55.2165 21.1643 54.5095 21.6907 53.7147 22.0465C52.7876 22.438 51.7875 22.6265 50.7816 22.5995C49.8475 22.6125 48.9209 22.436 48.0569 22.0805C47.2656 21.7508 46.5545 21.2545 45.972 20.6255C45.38 19.9744 44.9246 19.211 44.6336 18.3805C44.3075 17.4558 44.1463 16.481 44.1575 15.5005C44.1462 14.5171 44.3194 13.5403 44.6678 12.6205C44.9861 11.7809 45.4729 11.0152 46.098 10.3705C46.7237 9.73591 47.4746 9.23897 48.3035 8.91154C49.2065 8.55707 50.17 8.38082 51.14 8.39252C52.044 8.37046 52.9427 8.53206 53.7825 8.86753C54.5119 9.17701 55.1804 9.61383 55.7567 10.1575L55.1458 11.0205C55.1035 11.0822 55.0509 11.1363 54.9905 11.1805C54.9152 11.2273 54.8271 11.2494 54.7386 11.2435C54.6425 11.2398 54.55 11.2078 54.472 11.1515C54.378 11.0895 54.266 11.0145 54.138 10.9235C54.01 10.8325 53.856 10.7365 53.681 10.6325C53.483 10.5179 53.2755 10.4206 53.0609 10.3415C52.7897 10.2423 52.5108 10.166 52.2269 10.1135C51.8656 10.0483 51.4987 10.0175 51.1317 10.0215C50.4324 10.013 49.7383 10.1432 49.0897 10.4045C48.4847 10.65 47.9391 11.022 47.4896 11.4955C47.0278 11.9935 46.6731 12.581 46.4476 13.2215C46.1897 13.9533 46.0631 14.7248 46.0735 15.5005C46.0611 16.2892 46.1877 17.0738 46.4476 17.8185C46.6705 18.4537 47.0169 19.0386 47.4666 19.5395C47.8907 20.0044 48.4124 20.3701 48.994 20.6105C49.5963 20.8591 50.2422 20.9846 50.8939 20.9795C51.2668 20.9821 51.6392 20.9577 52.0086 20.9065C52.3213 20.8624 52.6286 20.786 52.9256 20.6785C53.2014 20.5779 53.4649 20.446 53.7108 20.2855C53.9689 20.1155 54.2135 19.9259 54.4427 19.7185C54.529 19.6317 54.6447 19.58 54.7669 19.5735Z" fill="#8989A2"/>
<path d="M59.9055 8.15952V22.4435H58.1799V8.15952H59.9055Z" fill="#8989A2"/>
<path d="M66.8406 12.4655C67.398 12.4611 67.9511 12.563 68.4705 12.7655C68.9562 12.955 69.396 13.2458 69.7605 13.6185C70.1365 14.0133 70.4258 14.4823 70.6096 14.9955C70.82 15.595 70.9214 16.2273 70.9094 16.8625C70.9257 17.0479 70.8959 17.2345 70.8225 17.4055C70.7839 17.4548 70.7334 17.4932 70.6755 17.517C70.6177 17.5408 70.5545 17.5493 70.4924 17.5415H63.9558C63.9574 18.0908 64.0423 18.6367 64.2078 19.1605C64.3427 19.5824 64.5602 19.9731 64.8484 20.3095C65.113 20.6123 65.4456 20.8484 65.8186 20.9985C66.2199 21.1554 66.6476 21.2328 67.0784 21.2265C67.4575 21.2343 67.8357 21.1837 68.1995 21.0765C68.4776 20.9906 68.7483 20.8819 69.0085 20.7515C69.2035 20.6533 69.393 20.5448 69.5764 20.4265C69.6902 20.3403 69.8262 20.2882 69.9685 20.2765C70.0331 20.2737 70.0976 20.2874 70.1555 20.3163C70.2134 20.3452 70.2629 20.3882 70.2996 20.4415L70.7835 21.0715C70.565 21.3349 70.3069 21.5624 70.0178 21.7455C69.7184 21.9374 69.3983 22.095 69.0637 22.2155C68.7217 22.3389 68.3691 22.4312 68.0105 22.4915C67.6551 22.5524 67.2954 22.5832 66.9348 22.5835C66.2932 22.5903 65.6558 22.4735 65.0584 22.2395C64.4958 22.0164 63.9893 21.6722 63.5745 21.2315C63.1395 20.7569 62.8077 20.1971 62.6003 19.5875C62.3563 18.863 62.2386 18.102 62.2517 17.3375C62.2462 16.6842 62.3527 16.0348 62.5667 15.4175C62.7625 14.8464 63.0706 14.3203 63.4734 13.8705C63.8754 13.4282 64.3682 13.0776 64.9177 12.8425C65.5255 12.5844 66.1803 12.456 66.8406 12.4655ZM66.8796 13.7365C66.5197 13.7166 66.1594 13.7703 65.821 13.8945C65.4826 14.0186 65.173 14.2106 64.9114 14.4585C64.4012 15.0084 64.0877 15.7116 64.0188 16.4585H69.3626C69.3665 16.0854 69.3108 15.714 69.1975 15.3585C69.0958 15.041 68.931 14.7474 68.7127 14.4955C68.4976 14.2522 68.2304 14.0602 67.9314 13.9335C67.5979 13.7965 67.2401 13.7295 66.8796 13.7365Z" fill="#8989A2"/>
<path d="M80.3275 22.4435H79.5604C79.4209 22.4492 79.2821 22.4225 79.1546 22.3655C79.0977 22.3301 79.0497 22.2818 79.015 22.2245C78.9802 22.1671 78.9595 22.1024 78.9544 22.0355L78.7616 21.1235C78.5029 21.3562 78.2507 21.5648 78.0047 21.7495C77.763 21.9311 77.5025 22.087 77.2284 22.2145C76.9513 22.3428 76.6607 22.4387 76.3617 22.5005C76.025 22.569 75.6823 22.6025 75.3387 22.6005C74.9755 22.6029 74.6139 22.5486 74.2674 22.4395C73.9482 22.3399 73.6531 22.1759 73.3998 21.9575C73.1465 21.7335 72.9456 21.4562 72.8123 21.1455C72.659 20.7774 72.585 20.3812 72.5946 19.9825C72.5964 19.5856 72.707 19.1969 72.9144 18.8585C73.1714 18.4564 73.5267 18.1263 73.9466 17.8995C74.5315 17.5796 75.1604 17.3484 75.8133 17.2135C76.741 17.0192 77.6879 16.9293 78.6356 16.9455V16.1745C78.6796 15.5546 78.5061 14.9386 78.1454 14.4325C77.9648 14.2299 77.7405 14.0714 77.4891 13.9691C77.2377 13.8669 76.9664 13.8235 76.6956 13.8425C76.335 13.8329 75.9755 13.8871 75.6336 14.0025C75.3729 14.096 75.1225 14.2163 74.8866 14.3615C74.6766 14.4948 74.4956 14.6145 74.3436 14.7205C74.2139 14.8194 74.0564 14.8753 73.8934 14.8805C73.7842 14.8831 73.6774 14.8508 73.5877 14.7885C73.5019 14.7294 73.4307 14.6514 73.3797 14.5605L73.0677 14.0075C73.5736 13.509 74.1693 13.1109 74.8236 12.8345C75.4862 12.5691 76.1948 12.4373 76.9085 12.4465C77.4098 12.4373 77.9076 12.5295 78.3724 12.7175C78.7828 12.887 79.1507 13.1452 79.4496 13.4735C79.7492 13.8137 79.9736 14.2135 80.1078 14.6465C80.2617 15.1359 80.3369 15.6465 80.3314 16.1595L80.3275 22.4435ZM75.8475 21.3865C76.1282 21.3893 76.4082 21.3584 76.6815 21.2945C76.9285 21.2352 77.1677 21.1473 77.3944 21.0325C77.6213 20.917 77.8362 20.779 78.0355 20.6205C78.2486 20.4509 78.4492 20.2661 78.6356 20.0675V18.0405C77.9568 18.0313 77.2787 18.0818 76.6087 18.1915C76.1417 18.2661 75.6854 18.3988 75.2513 18.5865C74.9522 18.7101 74.6901 18.9085 74.4896 19.1625C74.333 19.3776 74.2495 19.6375 74.2523 19.9035C74.2467 20.1342 74.29 20.3635 74.3788 20.5765C74.4549 20.755 74.5711 20.9134 74.7186 21.0395C74.8644 21.1621 75.035 21.2518 75.2186 21.3025C75.423 21.3597 75.6343 21.3879 75.8465 21.3865H75.8475Z" fill="#8989A2"/>
<path d="M82.9465 22.4435V12.6205H83.9358C84.074 12.6058 84.2124 12.644 84.3235 12.7275C84.409 12.8325 84.46 12.9614 84.4695 13.0965L84.5857 14.6285C84.8739 14.0073 85.3001 13.4601 85.8318 13.0285C86.3291 12.6428 86.9433 12.4392 87.5725 12.4515C87.8212 12.4486 88.0695 12.4795 88.3098 12.5435C88.5236 12.6027 88.7288 12.6891 88.9207 12.8005L88.6975 14.0905C88.6854 14.1604 88.6487 14.2235 88.5935 14.268C88.5383 14.3126 88.4686 14.3355 88.3977 14.3325C88.255 14.3219 88.1146 14.2909 87.9807 14.2405C87.7249 14.1703 87.4597 14.1393 87.1946 14.1485C86.6447 14.1305 86.1078 14.3172 85.6877 14.6725C85.2349 15.093 84.8876 15.6145 84.6746 16.1945V22.4495L82.9465 22.4435Z" fill="#8989A2"/>
<path d="M90.8218 22.4435V8.15952H92.5566V14.0365C92.9506 13.5753 93.4248 13.1894 93.9565 12.8975C94.5131 12.6024 95.1357 12.4538 95.7656 12.4655C96.2966 12.4577 96.8227 12.567 97.3066 12.7855C97.7706 13.0024 98.1741 13.3305 98.481 13.7405C98.8273 14.2121 99.0804 14.7452 99.2275 15.3115C99.4124 16.0156 99.5007 16.7416 99.4897 17.4695C99.4957 18.1544 99.3975 18.8361 99.1987 19.4915C99.0237 20.0793 98.7392 20.6286 98.3599 21.1105C97.9983 21.5631 97.5416 21.9304 97.022 22.1865C96.4674 22.4546 95.8576 22.5892 95.2417 22.5795C94.6813 22.5965 94.1262 22.4694 93.6289 22.2105C93.1735 21.9543 92.7779 21.6038 92.4688 21.1825L92.3818 22.0745C92.3702 22.1818 92.317 22.2804 92.2339 22.3492C92.1508 22.4181 92.0446 22.452 91.937 22.4435H90.8218ZM95.2046 13.8435C94.685 13.8322 94.1727 13.9666 93.7256 14.2315C93.2703 14.5211 92.874 14.8944 92.5576 15.3315V20.0835C92.8188 20.467 93.1744 20.7769 93.5898 20.9835C93.9877 21.1622 94.4199 21.2516 94.856 21.2455C95.2615 21.2674 95.6661 21.1896 96.0347 21.019C96.4032 20.8483 96.7241 20.59 96.9697 20.2665C97.5106 19.4395 97.7689 18.4597 97.7065 17.4735C97.7158 16.919 97.6588 16.3655 97.5366 15.8245C97.4475 15.4198 97.2814 15.0361 97.0469 14.6945C96.8486 14.4122 96.5771 14.1893 96.2617 14.0495C95.9264 13.9071 95.5649 13.8366 95.2007 13.8425L95.2046 13.8435Z" fill="#8989A2"/>
<path d="M103.912 9.54153C103.914 9.70367 103.88 9.86423 103.812 10.0115C103.744 10.1555 103.653 10.2868 103.541 10.3995C103.428 10.5127 103.294 10.6033 103.148 10.6665C102.998 10.7326 102.836 10.7666 102.672 10.7665C102.51 10.7672 102.35 10.7331 102.202 10.6665C102.057 10.6027 101.925 10.5121 101.814 10.3995C101.701 10.288 101.61 10.1564 101.546 10.0115C101.48 9.86367 101.445 9.70349 101.446 9.54153C101.446 9.3764 101.48 9.2131 101.546 9.06153C101.608 8.91204 101.699 8.77618 101.814 8.66154C101.925 8.54909 102.057 8.45853 102.202 8.39454C102.35 8.32807 102.51 8.29397 102.672 8.29453C102.836 8.29454 102.998 8.32859 103.148 8.39454C103.294 8.45794 103.428 8.54853 103.541 8.66154C103.655 8.77738 103.746 8.9129 103.812 9.06153C103.879 9.21255 103.913 9.37622 103.912 9.54153ZM103.525 12.6255V22.4485H101.797V12.6255H103.525Z" fill="#8989A2"/>
<path d="M109.546 22.5985C109.219 22.62 108.891 22.5732 108.583 22.4614C108.275 22.3495 107.994 22.1748 107.757 21.9485C107.309 21.4316 107.084 20.7587 107.131 20.0765V14.0645H105.948C105.852 14.0674 105.758 14.0346 105.685 13.9725C105.648 13.9356 105.619 13.8908 105.6 13.8413C105.582 13.7919 105.575 13.739 105.579 13.6865V12.9985L107.188 12.7985L107.589 9.76353C107.599 9.67109 107.644 9.58602 107.715 9.52552C107.791 9.46248 107.887 9.42972 107.986 9.43353H108.86V12.8185H111.673V14.0695H108.861V19.9695C108.847 20.1353 108.867 20.302 108.918 20.4601C108.97 20.6182 109.052 20.7645 109.16 20.8905C109.263 20.9908 109.384 21.0692 109.517 21.1208C109.651 21.1723 109.793 21.1961 109.936 21.1905C110.096 21.1939 110.255 21.1692 110.406 21.1175C110.525 21.0753 110.64 21.0217 110.749 20.9575C110.847 20.8989 110.929 20.8455 110.996 20.7975C111.048 20.7555 111.111 20.7301 111.177 20.7245C111.228 20.7289 111.277 20.7464 111.32 20.7752C111.362 20.8041 111.396 20.8435 111.419 20.8895L111.919 21.7135C111.607 22.0008 111.242 22.2235 110.844 22.3685C110.428 22.5231 109.989 22.601 109.546 22.5985Z" fill="#8989A2"/>
</svg>
