<svg width="16" height="16" viewBox="0 0 16 16" fill="none" xmlns="http://www.w3.org/2000/svg">
<g clip-path="url(#clip0_5_162)">
<path d="M8 16C12.4183 16 16 12.4183 16 8C16 3.58172 12.4183 0 8 0C3.58172 0 0 3.58172 0 8C0 12.4183 3.58172 16 8 16Z" fill="#2DAAE1"/>
<path d="M13.098 4.83402C12.7167 5.00301 12.3122 5.11391 11.898 5.16302C12.3347 4.90159 12.6617 4.49044 12.818 4.00602C12.4076 4.24997 11.9584 4.42178 11.49 4.51401C11.203 4.20803 10.8307 3.99537 10.4214 3.90365C10.0121 3.81193 9.58463 3.84539 9.19455 3.99967C8.80447 4.15396 8.46978 4.42193 8.23393 4.76884C7.99809 5.11574 7.87198 5.52553 7.87198 5.94501C7.87183 6.10555 7.88994 6.26558 7.92598 6.42202C7.09439 6.38036 6.28085 6.1643 5.53816 5.78788C4.79548 5.41145 4.14023 4.88307 3.61497 4.23702C3.34769 4.69745 3.26581 5.24239 3.386 5.76104C3.50619 6.27968 3.81941 6.73308 4.26198 7.02901C3.93001 7.01879 3.6053 6.9293 3.31497 6.76801V6.79401C3.31489 7.27704 3.48196 7.74523 3.78783 8.11909C4.09369 8.49294 4.5195 8.74943 4.99298 8.84502C4.8134 8.89389 4.62809 8.91844 4.44199 8.91802C4.30979 8.91798 4.17787 8.90559 4.04797 8.88102C4.18172 9.2965 4.44196 9.65981 4.7923 9.92014C5.14264 10.1805 5.56558 10.3248 6.00198 10.333C5.12409 11.0208 4.00922 11.3322 2.90198 11.199C3.80094 11.775 4.83836 12.0985 5.9054 12.1354C6.97243 12.1723 8.02974 11.9213 8.96634 11.4087C9.90294 10.8962 10.6843 10.141 11.2285 9.22242C11.7726 8.30382 12.0595 7.2557 12.059 6.18803C12.059 6.09736 12.057 6.00701 12.053 5.91701C12.4628 5.62086 12.8166 5.25415 13.098 4.83402Z" fill="white"/>
</g>
<defs>
<clipPath id="clip0_5_162">
<rect width="16" height="16" fill="white"/>
</clipPath>
</defs>
</svg>
